# AST/ASF file generated using VICON BodyLanguage
# -----------------------------------------------
:version 1.10
:name VICON
:units
  mass 1.0
  length 0.45
  angle deg
:documentation
   .ast/.asf automatically generated from VICON data using
   VICON BodyBuilder and BodyLanguage model FoxedUp or BRILLIANT.MOD
:root
   order TX TY TZ RX RY RZ
   axis XYZ
   position 0 0 0  
   orientation 0 0 0 
:bonedata
  begin
     id 1 
     name lhipjoint
     direction 0.671379 -0.66392 0.329334 
     length 2.38647 
     axis 0 0 0  XYZ
  end
  begin
     id 2 
     name lfemur
     direction 0.34202 -0.939693 0  
     length 6.48179  
     axis 0 0 20  XYZ
    dof rx ry rz
    limits (-160.0 20.0)
           (-70.0 70.0)
           (-60.0 70.0)
  end
  begin
     id 3 
     name ltibia
     direction 0.34202 -0.939693 0   
     length 6.86524   
     axis 0 0 20   XYZ
    dof rx
    limits (-10.0 170.0)
  end
  begin
     id 4 
     name lfoot
     direction 0.204886 -0.562919 0.800715   
     length 1.73031   
     axis -90 7.62852e-016 20   XYZ
    dof rx rz
    limits (-45.0 90.0)
           (-70.0 20.0)
  end
  begin
     id 5 
     name ltoes
     direction 1.53548e-011 -4.21841e-011 1   
     length 0.828161   
     axis -90 7.62852e-016 20   XYZ
    dof rx
    limits (-90.0 20.0)
  end
  begin
     id 6 
     name rhipjoint
     direction -0.662732 -0.670855 0.332775   
     length 2.3618  
     axis 0 0 0  XYZ 
  end
  begin
     id 7 
     name rfemur
     direction -0.34202 -0.939693 0   
     length 6.3025   
     axis 0 0 -20   XYZ
    dof rx ry rz
    limits (-160.0 20.0)
           (-70.0 70.0)
           (-70.0 60.0)
  end
  begin
     id 8 
     name rtibia
     direction -0.34202 -0.939693 0   
     length 6.8732   
     axis 0 0 -20   XYZ
    dof rx
    limits (-10.0 170.0)
 end
 begin
     id 9 
     name rfoot
     direction -0.173856 -0.477665 0.861168   
     length 1.54784  
     axis -90 -7.62852e-016 -20   XYZ
    dof rx rz
    limits (-45.0 90.0)
           (-20.0 70.0)
  end
  begin
     id 10 
     name rtoes
     direction -1.53562e-011 -4.21802e-011 1   
     length 0.759618   
     axis -90 -7.62852e-016 -20   XYZ
    dof rx
    limits (-90.0 20.0)
  end
  begin
     id 11 
     name lowerback
     direction -0.0278357 0.999497 -0.0151789   
     length 1.97203   
     axis 0 0 0   XYZ
    dof rx ry rz
    limits (-20.0 45.0)
           (-30.0 30.0)
           (-30.0 30.0)
  end
  begin
     id 12 
     name upperback
     direction -0.00360622 0.997542 0.0699804   
     length 1.94709   
     axis 0 0 0   XYZ
    dof rx ry rz
    limits (-20.0 45.0)
           (-30.0 30.0)
           (-30.0 30.0)
  end
  begin
     id 13 
     name thorax
     direction 0.00907706 0.997048 0.0762461   
     length 1.95722   
     axis 0 0 0   XYZ
    dof rx ry rz
    limits (-20.0 45.0)
           (-30.0 30.0)
           (-30.0 30.0)
  end
  begin
     id 14 
     name lowerneck
     direction -0.0481835 0.99872 -0.0153927   
     length 1.63078   
     axis 0 0 0   XYZ
    dof rx ry rz
    limits (-20.0 45.0)
           (-30.0 30.0)
           (-30.0 30.0)
  end
  begin
     id 15 
     name upperneck
     direction 0.0859716 0.979226 -0.183644   
     length 1.62591   
     axis 0 0 0   XYZ
    dof rx ry rz
    limits (-20.0 45.0)
           (-30.0 30.0)
           (-30.0 30.0)
  end
  begin
     id 16
     name head
     direction 0.0324821 0.997629 -0.0606773  
     length 1.64811  
     axis 0 0 0   XYZ
    dof rx ry rz
    limits (-20.0 45.0)
           (-30.0 30.0)
           (-30.0 30.0)
  end
  begin
     id 17 
     name lclavicle
     direction 0.939609 0.311019 0.142835  
     length 3.70647  
     axis 0 0 0   XYZ
    dof ry rz
    limits (-20.0 10.0)
           (0.0 20.0)
  end
  begin
     id 18 
     name lhumerus
     direction 1 -4.48963e-011 -1.59838e-027   
     length 4.59207   
     axis 180 -30 -90   XYZ
    dof rx ry rz
    limits (-60.0 90.0)
           (-90.0 90.0)
           (-90.0 90.0)
  end
  begin
     id 19
     name lradius
     direction 1 -4.48957e-011 -1.3483e-026   
     length 2.98109   
     axis 180 -30 -90   XYZ
    dof rx
    limits (-10.0 170.0)
  end
  begin
     id 20
     name lwrist
     direction 1 -4.48954e-011 -3.11579e-026   
     length 1.49055   
     axis 2.00652e-014 90 90   XYZ
    dof ry
    limits (-180.0 0.0)
 end
  begin
     id 21 
     name lhand
     direction 1 -4.4911e-011 -6.23158e-026   
     length 0.480203   
     axis 3.97628e-014 90 90   XYZ
    dof rx rz
    limits (-90.0 90.0)
           (-45.0 45.0)
  end
  begin
     id 22 
     name lfingers
     direction 1 -4.48893e-011 -1.24632e-025   
     length 0.387152   
     axis 7.95256e-014 90 90   XYZ
    dof rx
    limits (0.0 90.0)
  end
  begin
     id 23
     name lthumb
     direction 0.707107 -6.35013e-011 0.707107   
     length 0.555875   
     axis -90 45 2.85299e-015   XYZ
    dof rx rz
    limits (-45.0 45.0)
           (-45.0 45.0)
  end
  begin
     id 24 
     name rclavicle
     direction -0.950396 0.30392 0.0661859   
     length 3.70894  
     axis 0 0 0   XYZ 
    dof ry rz
    limits (-10.0 20.0)
           (-20.0 0.0)
  end
  begin
     id 25 
     name rhumerus
     direction -1 -4.48957e-011 -2.96677e-027  
     length 4.76508   
     axis 180 30 90   XYZ
    dof rx ry rz
    limits (-90.0 60.0)
           (-90.0 90.0)
           (-90.0 90.0)
  end
  begin
     id 26 
     name rradius
     direction -1 -4.48974e-011 -1.44501e-026   
     length 2.78902   
     axis 180 30 90   XYZ
    dof rx
    limits (-10.0 170.0)
  end
  begin
     id 27 
     name rwrist
     direction -1 -4.48978e-011 -3.11579e-026   
     length 1.39451   
     axis 2.00652e-014 -90 -90   XYZ
    dof ry
    limits (-180.0 0.0)
  end
  begin
     id 28
     name rhand
     direction -1 -4.48956e-011 -6.23158e-026   
     length 0.721303   
     axis 3.97628e-014 -90 -90   XYZ
    dof rx rz
    limits (-90.0 90.0)
           (-45.0 45.0)
  end
  begin
     id 29
     name rfingers
     direction -1 -4.4899e-011 -1.24632e-025   
     length 0.581533   
     axis 7.95256e-014 -90 -90   XYZ
    dof rx
    limits (0.0 90.0)
  end
  begin
     id 30
     name rthumb
     direction -0.707107 -6.34911e-011 0.707107   
     length 0.834968   
     axis -90 -45 -2.85299e-015   XYZ
    dof rx rz
    limits (-45.0 45.0)
           (-45.0 45.0)
  end
:hierarchy
  begin
    root lhipjoint rhipjoint lowerback
    lhipjoint lfemur
    lfemur ltibia
    ltibia lfoot
    lfoot ltoes
    rhipjoint rfemur
    rfemur rtibia
    rtibia rfoot
    rfoot rtoes
    lowerback upperback
    upperback thorax
    thorax lowerneck lclavicle rclavicle
    lowerneck upperneck
    upperneck head
    lclavicle lhumerus
    lhumerus lradius
    lradius lwrist
    lwrist lhand lthumb
    lhand lfingers
    rclavicle rhumerus
    rhumerus rradius
    rradius rwrist
    rwrist rhand rthumb
    rhand rfingers
  end

#!OML:ASF I:\salsa\salsa 7_09\Patient 1\Session 1\dancerfemale.ASF
:FULLY-SPECIFIED
:DEGREES
188
root 24.6686 15.8559 0.408958 -46.6005 -85.953 54.0494
lowerback 2.9518 -0.581072 -2.10362
upperback -7.88278 -1.51035 -3.50249
thorax -10.0771 -0.846511 -2.36751
lowerneck -5.30023 -2.51349 -8.51438
upperneck 13.0414 -4.53562 12.9991
head 5.23959 -1.95988 5.22203
rclavicle 5.36719e-015 -4.77083e-014
rhumerus -57.9328 0.272306 -100.914
rradius 71.6329
rwrist -18.5299
rhand -0.334331 54.3124
rfingers 7.12502
rthumb 25.2701 25.966
lclavicle 5.36719e-015 -4.77083e-014
lhumerus -51.0811 3.72094 96.093
lradius 117.635
lwrist -17.4176
lhand -43.2524 44.6229
lfingers 7.12502
lthumb -16.1014 73.974
rfemur -18.9006 0.144822 15.9203
rtibia 33.5404
rfoot -26.9373 -16.7585
rtoes -8.98649
lfemur -18.6969 3.64759 -28.6027
ltibia 35.1251
lfoot -26.563 -5.37276
ltoes -24.9123
189
root 24.6746 15.8648 0.367951 -57.3225 -86.7273 65.1897
lowerback 2.96332 -0.541829 -2.96348
upperback -8.246 -1.50712 -2.93848
thorax -10.4546 -0.750198 -1.28568
lowerneck -5.7704 -2.1736 -7.62434
upperneck 13.6208 -4.03455 11.937
head 5.40761 -1.70811 4.76318
rclavicle -1.00386e-014 1.59028e-014
rhumerus -57.4793 0.995578 -100.965
rradius 71.8258
rwrist -19.583
rhand -0.467427 54.0437
rfingers 7.12502
rthumb 25.1426 25.6794
lclavicle -1.00386e-014 1.59028e-014
lhumerus -51.7741 3.99297 96.142
lradius 118.051
lwrist -16.6195
lhand -44.6878 45.0924
lfingers 7.12502
lthumb -17.4833 74.3262
rfemur -19.4894 -0.219319 16.3562
rtibia 33.2976
rfoot -26.4564 -15.5286
rtoes -9.10127
lfemur -19.2891 3.37603 -28.2216
ltibia 35.2895
lfoot -26.6791 -4.21417
ltoes -25.1215
190
root 24.6802 15.8695 0.322178 -77.266 -87.2177 85.4126
lowerback 2.97734 -0.43684 -4.14357
upperback -8.47491 -1.42431 -2.30876
thorax -10.6857 -0.577709 0.035626
lowerneck -6.46762 -1.85235 -7.25333
upperneck 14.2974 -3.5693 11.3526
head 5.67491 -1.46668 4.54923
rclavicle 8.74653e-015 -2.70347e-014
rhumerus -56.8206 1.90566 -100.937
rradius 72.0324
rwrist -20.985
rhand -0.399015 53.6872
rfingers 7.12502
rthumb 25.2081 25.332
lclavicle 8.74653e-015 -2.70347e-014
lhumerus -52.1283 4.20394 96.3043
lradius 118.244
lwrist -15.8344
lhand -46.1205 46.2475
lfingers 7.12502
lthumb -18.8616 75.3531
rfemur -19.9388 -0.0343712 16.6595
rtibia 33.1024
rfoot -26.071 -14.6642
rtoes -8.90761
lfemur -19.7555 3.16882 -27.962
ltibia 35.5379
lfoot -26.87 -2.94906
ltoes -25.1573
191
root 24.6919 15.8695 0.269049 -102.585 -87.2146 110.81
lowerback 3.25668 -0.220483 -5.51583
upperback -8.67872 -1.22695 -1.69131
thorax -11.074 -0.323193 1.44008
lowerneck -6.81686 -1.60332 -6.80191
upperneck 14.7429 -3.20721 10.7406
head 5.824 -1.29018 4.30522
rclavicle -4.67144e-015 9.14409e-015
rhumerus -56.1209 2.63897 -100.851
rradius 72.2013
rwrist -22.1125
rhand -0.345034 53.2658
rfingers 7.12502
rthumb 25.2598 24.918
lclavicle -4.67144e-015 9.14409e-015
lhumerus -52.4927 4.32923 96.2184
lradius 118.413
lwrist -15.8952
lhand -45.6431 46.2235
lfingers 7.12502
lthumb -18.4024 75.373
rfemur -20.199 0.427366 16.9356
rtibia 32.9751
rfoot -25.8549 -13.998
rtoes -8.85598
lfemur -20.0339 2.86562 -27.7144
ltibia 35.8509
lfoot -27.0979 -1.47603
ltoes -24.9248
192
root 24.7095 15.8647 0.226671 -117.262 -87.0845 125.346
lowerback 3.74366 -0.110531 -6.59976
upperback -8.76808 -1.16027 -1.10243
thorax -11.4714 -0.147521 2.67612
lowerneck -6.93367 -1.39099 -6.32115
upperneck 14.9286 -2.87764 10.0789
head 5.85815 -1.14126 4.03552
rclavicle -1.68967e-015 -2.22639e-014
rhumerus -55.2123 3.27424 -100.696
rradius 72.2521
rwrist -22.7671
rhand -0.404433 52.9547
rfingers 7.12502
rthumb 25.2029 24.5988
lclavicle -1.68967e-015 -2.22639e-014
lhumerus -52.8344 4.31009 96.0737
lradius 118.473
lwrist -16.0385
lhand -45.1601 45.9939
lfingers 7.12502
lthumb -17.9377 75.1866
rfemur -20.1754 0.481157 17.2797
rtibia 32.9144
rfoot -25.8584 -13.3393
rtoes -8.92979
lfemur -20.1012 1.67821 -27.3648
ltibia 36.2298
lfoot -27.3358 0.436568
ltoes -23.9209
193
root 24.7275 15.8558 0.189683 -128.835 -86.9187 136.621
lowerback 4.21281 0.00312823 -7.54491
upperback -8.69328 -1.06363 -0.510984
thorax -11.6829 0.0303407 3.83901
lowerneck -7.17503 -1.23447 -5.97833
upperneck 15.0932 -2.59305 9.40468
head 5.91672 -1.01884 3.78248
rclavicle 1.08835e-014 -2.26615e-014
rhumerus -54.0498 3.8598 -100.458
rradius 72.213
rwrist -23.1069
rhand -0.41124 52.8215
rfingers 7.12502
rthumb 25.1964 24.4647
lclavicle 1.08835e-014 -2.26615e-014
lhumerus -52.9964 4.08503 96.0416
lradius 118.406
lwrist -15.7908
lhand -45.6502 46.6189
lfingers 7.12502
lthumb -18.4093 75.7678
rfemur -20.0035 0.160025 17.6667
rtibia 32.8893
rfoot -25.8849 -12.4229
rtoes -8.97203
lfemur -20.0469 -0.0408313 -26.9851
ltibia 36.7629
lfoot -27.7443 2.78732
ltoes -23.1966
194
root 24.7432 15.8398 0.171218 -126.664 -87.4029 133.6
lowerback 5.19765 -0.0705527 -8.1074
upperback -8.39004 -1.20964 0.045533
thorax -11.9135 0.0605823 4.79828
lowerneck -7.38535 -1.19798 -5.62572
upperneck 15.2306 -2.43332 8.49456
head 5.97197 -0.974569 3.44307
rclavicle 1.88845e-015 -1.03368e-014
rhumerus -52.7159 4.31648 -100.064
rradius 72.0656
rwrist -23.3881
rhand -0.385909 52.7184
rfingers 7.12502
rthumb 25.2207 24.3651
lclavicle 1.88845e-015 -1.03368e-014
lhumerus -52.9583 3.72614 96.0503
lradius 118.147
lwrist -15.5904
lhand -45.9963 46.433
lfingers 7.12502
lthumb -18.7421 75.5501
rfemur -19.1049 -1.33484 18.0847
rtibia 32.881
rfoot -26.0162 -11.3193
rtoes -8.74904
lfemur -19.5297 -2.33492 -26.6371
ltibia 37.4709
lfoot -28.1163 4.87632
ltoes -23.7039
195
root 24.7609 15.8271 0.128164 -151.848 -86.6638 158.836
lowerback 4.90772 0.347607 -8.83124
upperback -8.26323 -0.608346 0.739616
thorax -11.6945 0.444887 5.87546
lowerneck -7.50841 -1.15055 -5.10821
upperneck 15.3034 -2.27043 7.51148
head 5.99122 -0.929435 3.05315
rclavicle 6.48535e-015 -6.55989e-015
rhumerus -51.1627 4.8091 -99.8465
rradius 71.7183
rwrist -23.7682
rhand -0.477015 52.6072
rfingers 7.12502
rthumb 25.1334 24.2416
lclavicle 6.48535e-015 -6.55989e-015
lhumerus -52.9283 3.36391 95.6672
lradius 117.723
lwrist -15.5674
lhand -46.4878 46.2582
lfingers 7.12502
lthumb -19.2148 75.329
rfemur -19.5233 -1.97472 18.9454
rtibia 32.8891
rfoot -25.5374 -9.51753
rtoes -8.77482
lfemur -20.0441 -3.00418 -25.9025
ltibia 38.3818
lfoot -28.664 6.91757
ltoes -24.0432
196
root 24.7781 15.8044 0.0984569 -166.689 -86.2978 173.446
lowerback 4.92647 0.518072 -9.02948
upperback -8.03717 -0.312442 1.36461
thorax -11.5057 0.630998 6.63437
lowerneck -7.65317 -1.05422 -4.78061
upperneck 15.4346 -2.0733 6.84951
head 6.03658 -0.857349 2.80221
rclavicle 2.96935e-015 2.08724e-015
rhumerus -49.5318 5.29096 -99.7823
rradius 71.3821
rwrist -24.2259
rhand -0.565665 52.3249
rfingers 7.12502
rthumb 25.0485 23.9474
lclavicle 2.96935e-015 2.08724e-015
lhumerus -53.0072 2.94063 94.9497
lradius 117.321
lwrist -15.6447
lhand -47.5395 47.9443
lfingers 7.12502
lthumb -20.2259 76.9113
rfemur -19.5126 -3.21287 19.9611
rtibia 32.9231
rfoot -25.1345 -7.83655
rtoes -8.86435
lfemur -20.3357 -4.08213 -25.0274
ltibia 39.4438
lfoot -29.2095 8.65198
ltoes -24.0064
197
root 24.7945 15.7783 0.0714385 -178.531 -85.7443 184.943
lowerback 4.9694 0.795456 -9.22982
upperback -7.7164 0.136886 2.06306
thorax -11.2671 0.889233 7.45728
lowerneck -7.87882 -1.03977 -4.87563
upperneck 15.6147 -1.94605 6.31268
head 6.12189 -0.833053 2.65755
rclavicle 2.98954e-015 -1.11816e-014
rhumerus -47.8992 5.64546 -99.4283
rradius 71.1593
rwrist -24.6459
rhand -0.576378 51.9769
rfingers 7.12502
rthumb 25.0382 23.598
lclavicle 2.98954e-015 -1.11816e-014
lhumerus -52.8825 2.33288 94.4693
lradius 116.874
lwrist -15.4967
lhand -46.1936 47.5492
lfingers 7.12502
lthumb -18.9319 76.6478
rfemur -19.3629 -4.18363 20.9568
rtibia 32.9821
rfoot -24.7886 -6.46734
rtoes -9.18251
lfemur -20.5363 -4.89737 -24.1702
ltibia 40.6126
lfoot -29.8942 10.0942
ltoes -23.8828
